<mxfile host="app.diagrams.net" modified="2022-02-10T00:58:52.244Z" agent="5.0 (Windows NT 10.0; WOW64) AppleWebKit/537.36 (KHTML, like Gecko) Chrome/97.0.4692.99 Safari/537.36" etag="osqWYfRa7pkvbu54Weuc" version="16.5.5" type="github">
  <diagram id="gWBOqwuCTexdovqESbqp" name="Page-1">
    <mxGraphModel dx="1151" dy="664" grid="0" gridSize="10" guides="1" tooltips="1" connect="1" arrows="1" fold="1" page="1" pageScale="1" pageWidth="827" pageHeight="1169" math="0" shadow="0">
      <root>
        <mxCell id="0" />
        <mxCell id="1" parent="0" />
        <mxCell id="mzly6rjB0d2bTAhVQwtF-1" value="BEGIN" style="ellipse;whiteSpace=wrap;html=1;" vertex="1" parent="1">
          <mxGeometry x="250" y="40" width="100" height="50" as="geometry" />
        </mxCell>
        <mxCell id="mzly6rjB0d2bTAhVQwtF-2" value="RA := A&lt;br&gt;RB := B" style="shape=parallelogram;perimeter=parallelogramPerimeter;whiteSpace=wrap;html=1;fixedSize=1;" vertex="1" parent="1">
          <mxGeometry x="240" y="120" width="120" height="40" as="geometry" />
        </mxCell>
        <mxCell id="mzly6rjB0d2bTAhVQwtF-3" value="RR := RB * 2^3&lt;br&gt;i := A" style="rounded=0;whiteSpace=wrap;html=1;" vertex="1" parent="1">
          <mxGeometry x="240" y="180" width="120" height="50" as="geometry" />
        </mxCell>
        <mxCell id="mzly6rjB0d2bTAhVQwtF-4" value="TCF := RR[3]&lt;br&gt;TOF := RR[2]&amp;nbsp;&lt;span style=&quot;color: rgb(17 , 17 , 17) ; background-color: rgb(255 , 255 , 255)&quot;&gt;&lt;font&gt;&lt;font face=&quot;u2000&quot; style=&quot;font-size: 14px&quot;&gt;âŠ» &lt;/font&gt;&lt;font style=&quot;font-size: 12px&quot;&gt;RR[3]&lt;/font&gt;&lt;/font&gt;&lt;/span&gt;" style="rounded=0;whiteSpace=wrap;html=1;" vertex="1" parent="1">
          <mxGeometry x="240" y="270" width="120" height="40" as="geometry" />
        </mxCell>
        <mxCell id="mzly6rjB0d2bTAhVQwtF-5" value="i = 0" style="rhombus;whiteSpace=wrap;html=1;fontFamily=Helvetica;fontSize=12;" vertex="1" parent="1">
          <mxGeometry x="254.5" y="340" width="90" height="60" as="geometry" />
        </mxCell>
        <mxCell id="mzly6rjB0d2bTAhVQwtF-6" value="" style="endArrow=none;html=1;rounded=0;fontFamily=Helvetica;fontSize=12;exitX=1;exitY=0.5;exitDx=0;exitDy=0;" edge="1" parent="1" source="mzly6rjB0d2bTAhVQwtF-5">
          <mxGeometry width="50" height="50" relative="1" as="geometry">
            <mxPoint x="369.5" y="300" as="sourcePoint" />
            <mxPoint x="409.5" y="370" as="targetPoint" />
          </mxGeometry>
        </mxCell>
        <mxCell id="mzly6rjB0d2bTAhVQwtF-7" value="" style="endArrow=classic;html=1;rounded=0;fontFamily=Helvetica;fontSize=12;entryX=0.5;entryY=0;entryDx=0;entryDy=0;" edge="1" parent="1" target="mzly6rjB0d2bTAhVQwtF-16">
          <mxGeometry width="50" height="50" relative="1" as="geometry">
            <mxPoint x="409.5" y="370" as="sourcePoint" />
            <mxPoint x="409.5" y="410" as="targetPoint" />
          </mxGeometry>
        </mxCell>
        <mxCell id="mzly6rjB0d2bTAhVQwtF-8" value="" style="endArrow=classic;html=1;rounded=0;fontFamily=Helvetica;fontSize=12;exitX=0.5;exitY=1;exitDx=0;exitDy=0;entryX=0.5;entryY=0;entryDx=0;entryDy=0;" edge="1" parent="1" source="mzly6rjB0d2bTAhVQwtF-4" target="mzly6rjB0d2bTAhVQwtF-5">
          <mxGeometry width="50" height="50" relative="1" as="geometry">
            <mxPoint x="370" y="480" as="sourcePoint" />
            <mxPoint x="420" y="430" as="targetPoint" />
          </mxGeometry>
        </mxCell>
        <mxCell id="mzly6rjB0d2bTAhVQwtF-9" value="" style="endArrow=classic;html=1;rounded=0;fontFamily=Helvetica;fontSize=12;exitX=0.5;exitY=1;exitDx=0;exitDy=0;entryX=0.5;entryY=0;entryDx=0;entryDy=0;" edge="1" parent="1" source="mzly6rjB0d2bTAhVQwtF-3" target="mzly6rjB0d2bTAhVQwtF-4">
          <mxGeometry width="50" height="50" relative="1" as="geometry">
            <mxPoint x="370" y="310" as="sourcePoint" />
            <mxPoint x="420" y="260" as="targetPoint" />
          </mxGeometry>
        </mxCell>
        <mxCell id="mzly6rjB0d2bTAhVQwtF-10" value="" style="endArrow=classic;html=1;rounded=0;fontFamily=Helvetica;fontSize=12;exitX=0.5;exitY=1;exitDx=0;exitDy=0;entryX=0.5;entryY=0;entryDx=0;entryDy=0;" edge="1" parent="1" source="mzly6rjB0d2bTAhVQwtF-2" target="mzly6rjB0d2bTAhVQwtF-3">
          <mxGeometry width="50" height="50" relative="1" as="geometry">
            <mxPoint x="370" y="350" as="sourcePoint" />
            <mxPoint x="420" y="300" as="targetPoint" />
          </mxGeometry>
        </mxCell>
        <mxCell id="mzly6rjB0d2bTAhVQwtF-11" value="" style="endArrow=classic;html=1;rounded=0;fontFamily=Helvetica;fontSize=12;exitX=0.5;exitY=1;exitDx=0;exitDy=0;entryX=0.5;entryY=0;entryDx=0;entryDy=0;" edge="1" parent="1" source="mzly6rjB0d2bTAhVQwtF-1" target="mzly6rjB0d2bTAhVQwtF-2">
          <mxGeometry width="50" height="50" relative="1" as="geometry">
            <mxPoint x="370" y="270" as="sourcePoint" />
            <mxPoint x="420" y="220" as="targetPoint" />
          </mxGeometry>
        </mxCell>
        <mxCell id="mzly6rjB0d2bTAhVQwtF-13" value="" style="endArrow=none;html=1;rounded=0;fontFamily=Helvetica;fontSize=12;exitX=0;exitY=0.5;exitDx=0;exitDy=0;" edge="1" parent="1" source="mzly6rjB0d2bTAhVQwtF-5">
          <mxGeometry width="50" height="50" relative="1" as="geometry">
            <mxPoint x="369.5" y="380" as="sourcePoint" />
            <mxPoint x="199.5" y="370" as="targetPoint" />
          </mxGeometry>
        </mxCell>
        <mxCell id="mzly6rjB0d2bTAhVQwtF-14" value="" style="endArrow=classic;html=1;rounded=0;fontFamily=Helvetica;fontSize=12;entryX=0.5;entryY=0;entryDx=0;entryDy=0;" edge="1" parent="1" target="mzly6rjB0d2bTAhVQwtF-15">
          <mxGeometry width="50" height="50" relative="1" as="geometry">
            <mxPoint x="199.5" y="370" as="sourcePoint" />
            <mxPoint x="199.5" y="410" as="targetPoint" />
          </mxGeometry>
        </mxCell>
        <mxCell id="mzly6rjB0d2bTAhVQwtF-15" value="RR := RR * 2^-1&lt;br&gt;i := i - 1" style="rounded=0;whiteSpace=wrap;html=1;fontFamily=Helvetica;fontSize=12;" vertex="1" parent="1">
          <mxGeometry x="150" y="420" width="100" height="40" as="geometry" />
        </mxCell>
        <mxCell id="mzly6rjB0d2bTAhVQwtF-16" value="END" style="ellipse;whiteSpace=wrap;html=1;fontFamily=Helvetica;fontSize=12;" vertex="1" parent="1">
          <mxGeometry x="369.5" y="420" width="81" height="50" as="geometry" />
        </mxCell>
        <mxCell id="mzly6rjB0d2bTAhVQwtF-17" value="" style="endArrow=none;html=1;rounded=0;fontFamily=Helvetica;fontSize=12;exitX=0.5;exitY=1;exitDx=0;exitDy=0;" edge="1" parent="1" source="mzly6rjB0d2bTAhVQwtF-15">
          <mxGeometry width="50" height="50" relative="1" as="geometry">
            <mxPoint x="370" y="520" as="sourcePoint" />
            <mxPoint x="200" y="480" as="targetPoint" />
          </mxGeometry>
        </mxCell>
        <mxCell id="mzly6rjB0d2bTAhVQwtF-18" value="" style="endArrow=none;html=1;rounded=0;fontFamily=Helvetica;fontSize=12;" edge="1" parent="1">
          <mxGeometry width="50" height="50" relative="1" as="geometry">
            <mxPoint x="200" y="480" as="sourcePoint" />
            <mxPoint x="120" y="480" as="targetPoint" />
          </mxGeometry>
        </mxCell>
        <mxCell id="mzly6rjB0d2bTAhVQwtF-19" value="" style="endArrow=none;html=1;rounded=0;fontFamily=Helvetica;fontSize=12;" edge="1" parent="1">
          <mxGeometry width="50" height="50" relative="1" as="geometry">
            <mxPoint x="120" y="480" as="sourcePoint" />
            <mxPoint x="120" y="250" as="targetPoint" />
          </mxGeometry>
        </mxCell>
        <mxCell id="mzly6rjB0d2bTAhVQwtF-20" value="" style="endArrow=classic;html=1;rounded=0;fontFamily=Helvetica;fontSize=12;" edge="1" parent="1">
          <mxGeometry width="50" height="50" relative="1" as="geometry">
            <mxPoint x="120" y="250" as="sourcePoint" />
            <mxPoint x="300" y="250" as="targetPoint" />
          </mxGeometry>
        </mxCell>
        <mxCell id="mzly6rjB0d2bTAhVQwtF-21" value="1" style="text;html=1;strokeColor=none;fillColor=none;align=center;verticalAlign=middle;whiteSpace=wrap;rounded=0;fontFamily=Helvetica;fontSize=12;" vertex="1" parent="1">
          <mxGeometry x="170" width="60" height="30" as="geometry" />
        </mxCell>
        <mxCell id="mzly6rjB0d2bTAhVQwtF-22" value="2" style="text;html=1;strokeColor=none;fillColor=none;align=center;verticalAlign=middle;whiteSpace=wrap;rounded=0;fontFamily=Helvetica;fontSize=12;" vertex="1" parent="1">
          <mxGeometry x="269.5" width="60" height="30" as="geometry" />
        </mxCell>
        <mxCell id="mzly6rjB0d2bTAhVQwtF-23" value="3" style="text;html=1;strokeColor=none;fillColor=none;align=center;verticalAlign=middle;whiteSpace=wrap;rounded=0;fontFamily=Helvetica;fontSize=12;" vertex="1" parent="1">
          <mxGeometry x="380" width="60" height="30" as="geometry" />
        </mxCell>
        <mxCell id="mzly6rjB0d2bTAhVQwtF-24" value="A" style="text;html=1;strokeColor=none;fillColor=none;align=center;verticalAlign=middle;whiteSpace=wrap;rounded=0;fontFamily=Helvetica;fontSize=12;" vertex="1" parent="1">
          <mxGeometry x="60" y="50" width="60" height="30" as="geometry" />
        </mxCell>
        <mxCell id="mzly6rjB0d2bTAhVQwtF-25" value="B" style="text;html=1;strokeColor=none;fillColor=none;align=center;verticalAlign=middle;whiteSpace=wrap;rounded=0;fontFamily=Helvetica;fontSize=12;" vertex="1" parent="1">
          <mxGeometry x="60" y="125" width="60" height="30" as="geometry" />
        </mxCell>
        <mxCell id="mzly6rjB0d2bTAhVQwtF-26" value="C" style="text;html=1;strokeColor=none;fillColor=none;align=center;verticalAlign=middle;whiteSpace=wrap;rounded=0;fontFamily=Helvetica;fontSize=12;" vertex="1" parent="1">
          <mxGeometry x="60" y="190" width="60" height="30" as="geometry" />
        </mxCell>
        <mxCell id="mzly6rjB0d2bTAhVQwtF-27" value="D" style="text;html=1;strokeColor=none;fillColor=none;align=center;verticalAlign=middle;whiteSpace=wrap;rounded=0;fontFamily=Helvetica;fontSize=12;" vertex="1" parent="1">
          <mxGeometry x="60" y="275" width="60" height="30" as="geometry" />
        </mxCell>
        <mxCell id="mzly6rjB0d2bTAhVQwtF-28" value="E" style="text;html=1;strokeColor=none;fillColor=none;align=center;verticalAlign=middle;whiteSpace=wrap;rounded=0;fontFamily=Helvetica;fontSize=12;" vertex="1" parent="1">
          <mxGeometry x="60" y="355" width="60" height="30" as="geometry" />
        </mxCell>
        <mxCell id="mzly6rjB0d2bTAhVQwtF-29" value="F" style="text;html=1;strokeColor=none;fillColor=none;align=center;verticalAlign=middle;whiteSpace=wrap;rounded=0;fontFamily=Helvetica;fontSize=12;" vertex="1" parent="1">
          <mxGeometry x="60" y="425" width="60" height="30" as="geometry" />
        </mxCell>
      </root>
    </mxGraphModel>
  </diagram>
</mxfile>
